<svg width="14" height="10" viewBox="0 0 14 10" fill="none" xmlns="http://www.w3.org/2000/svg">
<path d="M7 4.26089C8.17661 4.26089 9.13044 3.30705 9.13044 2.13044C9.13044 0.953832 8.17661 0 7 0C5.82338 0 4.86955 0.953832 4.86955 2.13044C4.86955 3.30705 5.82338 4.26089 7 4.26089Z" fill="#BCC9DC"/>
<path d="M11.2609 5.47827C12.1013 5.47827 12.7826 4.79697 12.7826 3.95654C12.7826 3.11612 12.1013 2.43481 11.2609 2.43481C10.4204 2.43481 9.73914 3.11612 9.73914 3.95654C9.73914 4.79697 10.4204 5.47827 11.2609 5.47827Z" fill="#BCC9DC"/>
<path d="M2.78234 5.47827C3.62277 5.47827 4.30407 4.79697 4.30407 3.95654C4.30407 3.11612 3.62277 2.43481 2.78234 2.43481C1.94191 2.43481 1.26061 3.11612 1.26061 3.95654C1.26061 4.79697 1.94191 5.47827 2.78234 5.47827Z" fill="#BCC9DC"/>
<path d="M6.99997 4.86963C4.8184 4.86963 3.04344 6.64458 3.04344 8.82616C3.04344 8.99416 3.1798 9.13052 3.3478 9.13052H10.6521C10.8201 9.13052 10.9565 8.99416 10.9565 8.82616C10.9565 6.64458 9.18154 4.86963 6.99997 4.86963Z" fill="#BCC9DC"/>
<path d="M3.30704 6.15265C3.12078 6.11308 2.93147 6.08691 2.73913 6.08691C1.22896 6.08691 0 7.31587 0 8.82604C0 8.99404 0.136357 9.1304 0.304357 9.1304H2.49078C2.45668 9.03485 2.43477 8.93318 2.43477 8.82604C2.43477 7.82717 2.76104 6.905 3.30704 6.15265Z" fill="#BCC9DC"/>
<path d="M11.2609 6.08691C11.0686 6.08691 10.8792 6.11308 10.693 6.15265C11.239 6.905 11.5652 7.82717 11.5652 8.82604C11.5652 8.93318 11.5433 9.03482 11.5092 9.1304H13.6957C13.8637 9.1304 14 8.99404 14 8.82604C14 7.31587 12.7711 6.08691 11.2609 6.08691Z" fill="#BCC9DC"/>
</svg>
