<svg xmlns="http://www.w3.org/2000/svg" width="1352.671" height="134.093" viewBox="0 0 1352.671 134.093">
  <g id="bg-line-zig-zag" transform="translate(1.259)">
    <path id="Path_101394" data-name="Path 101394" d="M-9313.905-3096.77s50.413-16.223,100.105-49.151,112.122-30.029,112.122-30.029,63.264,3.25,130.895,41.228c-.6.315,91.317,59.659,157.8,11.916-.338.018,67.084-52.247,7.943-83.929.791-.264-25.347-5.809-25.347,16.369,0,.528-5.28,45.412,94.521,81.319.528.264,117.363,48.6,313.424,11.347.98.98,341.878-103.177,458.535,20.341" transform="translate(9313.905 3210.038)" fill="none" stroke="#A7CEED" stroke-linecap="round" stroke-width="2" stroke-dasharray="5"/>
    <circle id="Ellipse_9320" data-name="Ellipse 9320" cx="6.067" cy="6.067" r="6.067" transform="translate(191.925 27.864)" fill="#2196f3"/>
    <circle id="Ellipse_9321" data-name="Ellipse 9321" cx="6.067" cy="6.067" r="6.067" transform="translate(485.979)" fill="#2196f3"/>
    <circle id="Ellipse_9322" data-name="Ellipse 9322" cx="6.067" cy="6.067" r="6.067" transform="translate(765.758 119.22)" fill="#2196f3"/>
    <circle id="Ellipse_9323" data-name="Ellipse 9323" cx="6.067" cy="6.067" r="6.067" transform="translate(1034.117 74.969)" fill="#2196f3"/>
    <circle id="Ellipse_9324" data-name="Ellipse 9324" cx="6.067" cy="6.067" r="6.067" transform="translate(1243.952 74.969)" fill="#2196f3"/>
  </g>
</svg>
