<svg width="13" height="13" viewBox="0 0 13 13" fill="none" xmlns="http://www.w3.org/2000/svg">
<path d="M4.67188 8.53125L6.50589 9.63165C6.56605 9.66775 6.61583 9.71881 6.65039 9.77985C6.68496 9.8409 6.70313 9.90986 6.70312 9.98001V12.1875H0.609375V9.98001C0.609374 9.90986 0.627541 9.8409 0.662105 9.77985C0.696669 9.71881 0.746453 9.66775 0.806609 9.63165L2.64062 8.53125" fill="#8A939B"/>
<path d="M2.64062 7.71875V8.73438C2.64062 8.86775 2.66689 8.99982 2.71793 9.12304C2.76897 9.24626 2.84379 9.35822 2.93809 9.45253C3.0324 9.54684 3.14437 9.62165 3.26759 9.67269C3.39081 9.72373 3.52288 9.75 3.65625 9.75C3.78962 9.75 3.92169 9.72373 4.04491 9.67269C4.16813 9.62165 4.2801 9.54684 4.37441 9.45253C4.46871 9.35822 4.54353 9.24626 4.59457 9.12304C4.64561 8.99982 4.67188 8.86775 4.67188 8.73438V7.71875H2.64062Z" fill="#8A939B"/>
<path d="M8.73439 4.26562C8.73439 4.26562 9.14064 3.85938 9.95314 3.85938C10.7656 3.85938 11.7813 4.46875 11.7813 6.5V10.3594H7.31251V6.29688C7.31251 5.6875 7.28293 4.0625 8.73439 4.26562Z" fill="#8A939B"/>
<path d="M12.3906 10.0011V12.1875H6.70312V10.0011C6.70313 9.92564 6.72414 9.85168 6.7638 9.78751C6.80347 9.72333 6.86022 9.67146 6.92771 9.63772L8.73438 8.73438H10.3594L12.166 9.63772C12.2335 9.67146 12.2903 9.72333 12.3299 9.78751C12.3696 9.85168 12.3906 9.92564 12.3906 10.0011V10.0011Z" fill="#8A939B"/>
<path d="M9.54688 7.92188H10.3594V8.73438C10.3594 8.94986 10.2738 9.15653 10.1214 9.3089C9.96903 9.46127 9.76236 9.54688 9.54688 9.54688C9.33139 9.54688 9.12472 9.46127 8.97235 9.3089C8.81998 9.15653 8.73438 8.94986 8.73438 8.73438V7.92188H9.54688Z" fill="#8A939B"/>
<path d="M2.03125 5.28125H5.28125V7.10938C5.28125 7.43261 5.15285 7.7426 4.92429 7.97116C4.69573 8.19972 4.38573 8.32812 4.0625 8.32812H3.25C2.92677 8.32812 2.61677 8.19972 2.38821 7.97116C2.15965 7.7426 2.03125 7.43261 2.03125 7.10938V5.28125Z" fill="#8A939B"/>
<path d="M4.46875 5.28382C4.46875 5.28382 3.25 6.29944 2.03125 6.29944C2.03125 6.29944 1.625 6.09632 1.625 5.08069C1.625 4.06507 3.65625 3.25257 4.67188 4.47132C4.67188 4.47132 5.6875 4.26819 5.6875 5.48694C5.6875 5.48694 5.6875 6.09632 5.28125 6.50257L4.46875 5.28382Z" fill="#8A939B"/>
<path d="M10.9688 6.5V7.10938C10.9687 7.43261 10.8403 7.7426 10.6118 7.97116C10.3832 8.19972 10.0732 8.32812 9.75 8.32812H9.34375C9.02052 8.32812 8.71052 8.19972 8.48196 7.97116C8.2534 7.7426 8.125 7.43261 8.125 7.10938V6.70312C8.73438 6.29688 8.9375 5.07812 8.9375 5.07812C8.9375 5.07812 9.34375 6.09375 10.9688 6.5Z" fill="#8A939B"/>
<path d="M7.88716 1.25351C7.73473 1.10118 7.52805 1.01561 7.31256 1.01561C7.09706 1.01561 6.89038 1.10118 6.73795 1.25351L6.49999 1.49142L6.26208 1.25351C6.10969 1.10112 5.903 1.01551 5.68749 1.0155C5.47197 1.0155 5.26528 1.10111 5.11289 1.2535C4.9605 1.40589 4.87488 1.61258 4.87488 1.8281C4.87488 2.04361 4.96049 2.2503 5.11288 2.40269L6.49999 3.78978L7.88708 2.40269C8.03938 2.25026 8.12494 2.0436 8.12495 1.82812C8.12497 1.61264 8.03944 1.40597 7.88716 1.25351V1.25351Z" fill="#8A939B"/>
<path d="M10.9688 12.1875V11.1719C10.9688 11.118 10.9902 11.0663 11.0282 11.0282C11.0663 10.9902 11.118 10.9688 11.1719 10.9688C11.2257 10.9688 11.2774 10.9902 11.3155 11.0282C11.3536 11.0663 11.375 11.118 11.375 11.1719V12.1875H10.9688Z" fill="#8A939B"/>
<path d="M7.71875 12.1875V11.1719C7.71875 11.118 7.74015 11.0663 7.77824 11.0282C7.81634 10.9902 7.868 10.9688 7.92188 10.9688C7.97575 10.9688 8.02741 10.9902 8.06551 11.0282C8.1036 11.0663 8.125 11.118 8.125 11.1719V12.1875H7.71875Z" fill="#8A939B"/>
<path d="M5.28125 12.1875V11.1719C5.28125 11.118 5.30265 11.0663 5.34074 11.0282C5.37884 10.9902 5.4305 10.9688 5.48438 10.9688C5.53825 10.9688 5.58991 10.9902 5.62801 11.0282C5.6661 11.0663 5.6875 11.118 5.6875 11.1719V12.1875H5.28125Z" fill="#8A939B"/>
<path d="M1.625 12.1875V11.1719C1.625 11.118 1.6464 11.0663 1.68449 11.0282C1.72259 10.9902 1.77425 10.9688 1.82812 10.9688C1.882 10.9688 1.93366 10.9902 1.97176 11.0282C2.00985 11.0663 2.03125 11.118 2.03125 11.1719V12.1875H1.625Z" fill="#8A939B"/>
</svg>
