<svg id="easy-booking" xmlns="http://www.w3.org/2000/svg" width="119.866" height="118.973" viewBox="0 0 119.866 118.973">
  <path id="Path_101395" data-name="Path 101395" d="M-9020.053-3034.5s-22.994-23.64-5.021-47.928c-.162-.162,31.573-41.451,31.573-41.451s18.46-29.955,50.358-7.934c-.163.162,33.517,19.754,30.926,56.995-.163,0-1.135,20.4-35.946,40.318s-54.84,12.043-54.84,12.043-11.717-4.055-16.314-10.972C-9019.36-3033.43-9020.053-3034.5-9020.053-3034.5Z" transform="translate(9031.939 3139.896)" fill="#e7f4ff"/>
  <g id="plane" transform="translate(22.782 35.218)">
    <g id="Group_41278" data-name="Group 41278" transform="translate(17.718 2.221)">
      <path id="Path_122927" data-name="Path 122927" d="M142.037,10.716l-3.364-3.364,4.774-4.774a1.223,1.223,0,0,1,1.73,0l1.634,1.634a1.223,1.223,0,0,1,0,1.73Z" transform="translate(-138.673 -2.221)" fill="#3d6687"/>
      <path id="Path_122928" data-name="Path 122928" d="M212.035,43.726l-3.364-3.364,4.774-4.774a1.223,1.223,0,0,1,1.73,0l1.634,1.634a1.223,1.223,0,0,1,0,1.73Z" transform="translate(-199.728 -31.013)" fill="#3d6687"/>
      <path id="Path_122929" data-name="Path 122929" d="M445.507,314.187l3.364,3.364,4.774-4.774a1.223,1.223,0,0,0,0-1.73l-1.634-1.634a1.223,1.223,0,0,0-1.73,0Z" transform="translate(-406.305 -269.852)" fill="#3d6687"/>
      <path id="Path_122930" data-name="Path 122930" d="M408.054,244.19l3.364,3.364,4.774-4.774a1.223,1.223,0,0,0,0-1.73l-1.634-1.634a1.223,1.223,0,0,0-1.73,0Z" transform="translate(-373.637 -208.799)" fill="#3d6687"/>
    </g>
    <g id="Group_41279" data-name="Group 41279" transform="translate(0 3.23)">
      <path id="Path_122931" data-name="Path 122931" d="M96.7,67.45l-21.352-28.6-28.6-21.352a2.052,2.052,0,0,1-.224-3.1l2.933-2.933a4.59,4.59,0,0,1,5-.995L89.285,24.906l14.436,34.832a4.59,4.59,0,0,1-.995,5l-2.933,2.933A2.052,2.052,0,0,1,96.7,67.45Z" transform="translate(-40.05 -10.12)" fill="#ccdfed"/>
      <path id="Path_122932" data-name="Path 122932" d="M23.226,324.645,13.407,311.59.352,301.771a.88.88,0,0,1-.093-1.326l1.505-1.505a3.446,3.446,0,0,1,3.858-.7l14.552,6.587,6.587,14.552a3.446,3.446,0,0,1-.7,3.858l-1.505,1.505A.88.88,0,0,1,23.226,324.645Z" transform="translate(0 -261.158)" fill="#ccdfed"/>
    </g>
    <g id="Group_41280" data-name="Group 41280" transform="translate(0 7.285)">
      <path id="Path_122933" data-name="Path 122933" d="M26.76,331.886,24.5,326.9h0l-1.4,1.4a2.845,2.845,0,0,1-4.286-.3l-4-5.315-.013.012L.94,312.273h0l-.682.682a.881.881,0,0,0,.093,1.326L13.406,324.1l9.819,13.055a.88.88,0,0,0,1.326.093l1.505-1.505A3.446,3.446,0,0,0,26.76,331.886Z" transform="translate(0 -277.724)" fill="#bad5e5"/>
      <path id="Path_122934" data-name="Path 122934" d="M103.659,91.108c.059-.128.114-.257.161-.389a4.646,4.646,0,0,0-.084-3.3l-2.1-5.063-.133-.322a4.587,4.587,0,0,1-1.309,2.676l-2.933,2.933a2.052,2.052,0,0,1-3.1-.224L77.2,64.693,46.754,41.862l-.222.222a2.057,2.057,0,0,0,.224,3.1L65.341,59.052l10.02,7.479,7.479,10.02L96.712,95.136a2.057,2.057,0,0,0,3.1.224l2.933-2.933A4.579,4.579,0,0,0,103.659,91.108Z" transform="translate(-40.065 -41.862)" fill="#bad5e5"/>
    </g>
    <path id="Path_122935" data-name="Path 122935" d="M79.18,67.776h0a2.628,2.628,0,0,1-3.5-3.5h0a61.394,61.394,0,0,1,9-13.755l24.765-28.592a21.661,21.661,0,0,1,14.4-7.389l1.518-.139a3.4,3.4,0,0,1,3.7,3.7l-.139,1.518a21.662,21.662,0,0,1-7.389,14.4L92.935,58.774A61.391,61.391,0,0,1,79.18,67.776Z" transform="translate(-65.776 -10.608)" fill="#61aff6"/>
    <path id="Path_122936" data-name="Path 122936" d="M134.327,19.613l.139-1.518a3.4,3.4,0,0,0-3.7-3.7l-1.518.139-.059.006a21.661,21.661,0,0,1-7.383,14.336L81.614,67.274a2.582,2.582,0,0,0,2.977.5h0a61.393,61.393,0,0,0,13.755-9l28.592-24.765A21.661,21.661,0,0,0,134.327,19.613Z" transform="translate(-71.186 -10.608)" fill="#399aea"/>
    <path id="Path_122937" data-name="Path 122937" d="M393.641,56.235a.979.979,0,1,0-.167,1.95,5,5,0,0,1,4.94,4.94.979.979,0,1,0,1.95-.167A6.949,6.949,0,0,0,393.641,56.235Z" transform="translate(-342.421 -47.11)" fill="#fff"/>
    <path id="Path_122938" data-name="Path 122938" d="M432.463,78.437a.979.979,0,0,0,.892-1.059,7.391,7.391,0,0,0-1.959-4.615q-.452.947-.995,1.847a5.765,5.765,0,0,1,1,2.934.979.979,0,0,0,1.059.892Z" transform="translate(-375.411 -61.53)" fill="#ccdfed"/>
  </g>
</svg>
