<svg id="exc-deal" xmlns="http://www.w3.org/2000/svg" width="122.177" height="114.73" viewBox="0 0 122.177 114.73">
  <path id="Path_101397" data-name="Path 101397" d="M-8203.857-3032.757s-40.165-18.206-13.462-72.051c.221,0,32-58.92,83.416-27.584-.221-.442,47.666,31.556,22.067,88.16.3-.424-9.928,28.264-89.158,12.817C-8201.461-3031.076-8203.857-3032.757-8203.857-3032.757Z" transform="translate(8226.481 3141.574)" fill="#e7f4ff"/>
  <g id="Flat" transform="translate(26.743 25.242)">
    <g id="_02-Heart_copy_5" data-name="02-Heart copy 5" transform="translate(8.997 2.933)">
      <path id="Path_122890" data-name="Path 122890" d="M24.294,23.527s5.462-5.7,5.462-12.539A16.239,16.239,0,0,0,27.57,3.009,14.317,14.317,0,0,1,39.587,7.569c4.37,4.559,7.647,15.958,7.647,15.958a8.888,8.888,0,0,0,2.185-5.7,14.354,14.354,0,0,0-1.092-5.7S55.4,15.765,59.25,25.807c2.185,5.7,2.185,11.4,2.185,17.1A25.823,25.823,0,0,1,35.217,69.122,25.823,25.823,0,0,1,9,42.9c0-11.4,5.461-17.1,6.554-20.518a31.284,31.284,0,0,0,1.091-7.979,18.888,18.888,0,0,1,4.371,3.42,16.874,16.874,0,0,1,3.277,5.7Z" transform="translate(-8.997 -2.933)" fill="#ffb369"/>
      <g id="Group_41252" data-name="Group 41252" transform="translate(0.001 0.015)">
        <path id="Path_122891" data-name="Path 122891" d="M43.858,20.1c1.235,3.171,1.969,5.723,1.969,5.723a8.888,8.888,0,0,0,2.185-5.7,14.354,14.354,0,0,0-1.092-5.7,16.777,16.777,0,0,1,2.589,1.805A22.074,22.074,0,0,0,43.5,11a14.355,14.355,0,0,1,1.092,5.7A8.407,8.407,0,0,1,43.858,20.1Z" transform="translate(-4.172 -1.821)" fill="#eb7f58"/>
        <path id="Path_122892" data-name="Path 122892" d="M23.318,22.3a18.133,18.133,0,0,1,2.393,4.641s5.462-5.7,5.462-12.539a16.238,16.238,0,0,0-2.186-7.979,14.073,14.073,0,0,1,9.861,2.679,14.677,14.677,0,0,0-13.28-6.1,16.238,16.238,0,0,1,2.186,7.979c0,4.95-2.854,9.29-4.435,11.317Z" transform="translate(-6.995 -2.947)" fill="#eb7f58"/>
        <path id="Path_122893" data-name="Path 122893" d="M12.42,44.916c0-11.4,5.461-17.1,6.554-20.518a31.278,31.278,0,0,0,1.091-7.979,16.114,16.114,0,0,1,2.052,1.355,11.406,11.406,0,0,0-1.1-1.355A18.888,18.888,0,0,0,16.646,13a31.278,31.278,0,0,1-1.091,7.979C14.462,24.4,9,30.1,9,41.5a25.893,25.893,0,0,0,9.315,20.242,26.179,26.179,0,0,1-5.9-16.823Z" transform="translate(-8.998 -1.541)" fill="#eb7f58"/>
      </g>
      <g id="Group_41253" data-name="Group 41253" transform="translate(17.101 29.712)">
        <path id="Path_122894" data-name="Path 122894" d="M28.559,38.119a4.559,4.559,0,1,1,4.559-4.559,4.559,4.559,0,0,1-4.559,4.559Zm0-6.839a2.28,2.28,0,1,0,2.28,2.28A2.28,2.28,0,0,0,28.559,31.28Z" transform="translate(-24 -29)" fill="#fafbfb"/>
        <path id="Path_122895" data-name="Path 122895" d="M36.559,50.119a4.559,4.559,0,1,1,4.559-4.559,4.559,4.559,0,0,1-4.559,4.559Zm0-6.839a2.28,2.28,0,1,0,2.28,2.28,2.28,2.28,0,0,0-2.28-2.28Z" transform="translate(-22.881 -27.322)" fill="#fafbfb"/>
        <path id="Path_122896" data-name="Path 122896" d="M26.14,49.238a1.14,1.14,0,0,1-.865-1.882L38.953,31.4a1.14,1.14,0,1,1,1.731,1.484L27.006,48.84a1.139,1.139,0,0,1-.866.4Z" transform="translate(-23.86 -28.72)" fill="#fafbfb"/>
      </g>
    </g>
  </g>
</svg>
