<svg id="airplane" xmlns="http://www.w3.org/2000/svg" width="27.776" height="15.155" viewBox="0 0 27.776 15.155">
  <path id="Path_11" data-name="Path 11" d="M42.2,128.2a7.193,7.193,0,0,0-5.735.351L23.73,134.816l-3.014-2.083a3.6,3.6,0,0,0-3.37-.385L16,132.88l5.26,4.27a3.635,3.635,0,0,0,2.392.825,1.842,1.842,0,0,0,.641-.116l5.273-2.031.023.009.457-1.208,5.633-2.224-.71,1.227,7.263-2.876A1.37,1.37,0,0,0,42.2,128.2Z" transform="translate(-15.661 -127.423)" fill="#e5f5fd"/>
  <path id="Path_12" data-name="Path 12" d="M17.346,133.476a3.6,3.6,0,0,1,3.37.385l2.673,1.848a.705.705,0,0,0,.713.053l5.269-2.594,3.505-1.726,3.587-1.766a7.193,7.193,0,0,1,5.735-.351,1.339,1.339,0,0,1,.782.724,1.4,1.4,0,0,0,.119-.565,1.35,1.35,0,0,0-.9-1.288,7.193,7.193,0,0,0-5.735.351l-3.587,1.766-3.505,1.726-5.641,2.777-3.014-2.083a3.6,3.6,0,0,0-3.37-.385L16,132.88l.935.759Z" transform="translate(-15.661 -127.423)" fill="#b9c8db"/>
  <path id="Path_13" data-name="Path 13" d="M177.314,133.135l-3.505,1.726-4.729-3.047,1.746-1.062Z" transform="translate(-160.099 -130.245)" fill="#43caf9"/>
  <path id="Path_14" data-name="Path 14" d="M175.841,143.1l-5.971-2.539-.79.508,4.729,3.047Z" transform="translate(-160.099 -139.501)" fill="#29c2f8"/>
  <path id="Path_15" data-name="Path 15" d="M175.164,146.27l-5.575-2.709-.508.339,4.729,3.047Z" transform="translate(-160.099 -142.332)" fill="#00b8f8"/>
  <path id="Path_16" data-name="Path 16" d="M222.351,210.051l-.71,1.227-4.984,8.607H213.84l2.421-6.4.457-1.208Z" transform="translate(-202.332 -205.068)" fill="#43caf9"/>
  <path id="Path_17" data-name="Path 17" d="M220.75,235.451l-2.032.79-.457,1.208-2.421,6.4h1.073Z" transform="translate(-204.219 -229.034)" fill="#29c2f8"/>
  <path id="Path_18" data-name="Path 18" d="M219.734,242.451l-1.016.4-.457,1.208-2.421,6.4h.508Z" transform="translate(-204.219 -235.639)" fill="#00b8f8"/>
  <path id="Path_19" data-name="Path 19" d="M36.653,122.247a7.554,7.554,0,0,0-6,.365l-3.456,1.7-6.352-2.333a.338.338,0,0,0-.293.029l-1.746,1.062a.339.339,0,0,0-.008.574l4.225,2.723L18.1,128.793l-2.85-1.97a3.928,3.928,0,0,0-3.686-.422l-1.347.533a.339.339,0,0,0-.089.578l5.26,4.27a3.98,3.98,0,0,0,2.5.9l.114,0a2.179,2.179,0,0,0,.753-.139l4.6-1.771-2.161,5.715a.339.339,0,0,0,.317.459h2.817a.339.339,0,0,0,.293-.169l4.925-8.505,7.153-2.832a1.709,1.709,0,0,0-.044-3.195ZM19.62,123.368l1.144-.7,5.593,2.055-2.624,1.292Zm4.51,12.9H22l2.651-7.011,4.589-1.812Zm12.318-11.459-6.357,2.517.222-.383a.339.339,0,0,0-.418-.485l-5.633,2.224a.339.339,0,0,0-.192.2l-.4,1.045-5.166,1.99a1.515,1.515,0,0,1-.527.093,3.294,3.294,0,0,1-2.169-.75L11,127.351l.808-.32a3.252,3.252,0,0,1,3.052.349l3.014,2.083a.339.339,0,0,0,.342.025l12.737-6.271a6.877,6.877,0,0,1,5.465-.335,1.032,1.032,0,0,1,.026,1.928Z" transform="translate(-10.001 -121.793)" fill="#1c3c6b"/>
</svg>
