<?xml version="1.0" encoding="UTF-8"?>
<!DOCTYPE svg PUBLIC "-//W3C//DTD SVG 1.1//EN" "http://www.w3.org/Graphics/SVG/1.1/DTD/svg11.dtd">
<!-- Creator: CorelDRAW X7 -->
<svg xmlns="http://www.w3.org/2000/svg" xml:space="preserve" width="100%" height="100%" version="1.1" style="shape-rendering:geometricPrecision; text-rendering:geometricPrecision; image-rendering:optimizeQuality; fill-rule:evenodd; clip-rule:evenodd"
viewBox="0 0 11000 8500"
 xmlns:xlink="http://www.w3.org/1999/xlink">
 <defs>
  <style type="text/css">
   <![CDATA[
    .str2 {stroke:#006CB3;stroke-width:118.11}
    .str1 {stroke:#006CB3;stroke-width:196.85}
    .str0 {stroke:#006CB3;stroke-width:275.591}
    .str3 {stroke:#006CB3;stroke-width:314.961}
    .fil0 {fill:none}
    .fil1 {fill:#24A8E0}
   ]]>
  </style>
 </defs>
 <g id="Layer_x0020_1">
  <metadata id="CorelCorpID_0Corel-Layer"/>
  <g id="_890229760">
  </g>
  <g id="_890223568">
  </g>
  <g id="_890222896">
  </g>
  <g id="_890222704">
  </g>
  <g id="_890222080">
  </g>
  <g id="_801642248">
  </g>
  <g id="_801641960">
  </g>
  <g id="_801641264">
  </g>
  <g id="_801637784">
  </g>
  <g id="_801635648">
  </g>
  <g id="_801632768">
  </g>
  <g id="_801630104">
  </g>
  <g id="_801629528">
  </g>
  <g id="_801661856">
  </g>
  <g id="_801661184">
  </g>
  <path class="fil0 str0" d="M4457 1907l2486 0c172,0 313,141 313,312l0 4938 -3111 0 0 -4938c0,-171 140,-312 312,-312z"/>
  <path class="fil0 str0" d="M7526 3608l1634 0c129,0 235,106 235,235l0 3314 -2103 0 0 -3314c0,-129 105,-235 234,-235z"/>
  <rect class="fil0 str0" x="5190" y="5436" width="1020" height="1720" rx="114" ry="114"/>
  <rect class="fil0 str1" x="8088" y="6236" width="510" height="860" rx="57" ry="57"/>
  <rect class="fil1" x="5937" y="2615" width="736" height="743" rx="82" ry="49"/>
  <rect class="fil1" x="4759" y="2615" width="736" height="743" rx="82" ry="49"/>
  <rect class="fil1" x="5937" y="3744" width="736" height="743" rx="82" ry="49"/>
  <rect class="fil1" x="4759" y="3744" width="736" height="743" rx="82" ry="49"/>
  <g id="_801654488">
  </g>
  <g id="_801654344">
  </g>
  <g id="_801654272">
  </g>
  <g id="_801653816">
  </g>
  <g id="_801654104">
  </g>
  <g id="_801653720">
  </g>
  <g id="_801653408">
  </g>
  <g id="_801653360">
  </g>
  <g id="_801653576">
  </g>
  <g id="_801652328">
  </g>
  <g id="_801652232">
  </g>
  <g id="_801652808">
  </g>
  <g id="_801651488">
  </g>
  <g id="_801652040">
  </g>
  <g id="_801652184">
  </g>
  <rect class="fil0 str2" x="8500" y="4264" width="453" height="457" rx="51" ry="30"/>
  <rect class="fil0 str2" x="7775" y="4264" width="453" height="457" rx="51" ry="30"/>
  <rect class="fil0 str2" x="8500" y="4959" width="453" height="457" rx="51" ry="30"/>
  <rect class="fil0 str2" x="7775" y="4959" width="453" height="457" rx="51" ry="30"/>
  <line class="fil0 str3" x1="1664" y1="7157" x2="9914" y2= "7157" />
  <path class="fil0 str0" d="M2276 3608l1634 0c129,0 235,106 235,235l0 3314 -2103 0 0 -3314c0,-129 105,-235 234,-235z"/>
  <rect class="fil0 str1" x="2838" y="6236" width="510" height="860" rx="57" ry="57"/>
  <rect class="fil0 str2" x="3250" y="4264" width="453" height="457" rx="51" ry="30"/>
  <rect class="fil0 str2" x="2525" y="4264" width="453" height="457" rx="51" ry="30"/>
  <rect class="fil0 str2" x="3250" y="4959" width="453" height="457" rx="51" ry="30"/>
  <rect class="fil0 str2" x="2525" y="4959" width="453" height="457" rx="51" ry="30"/>
 </g>
</svg>
