<?xml version="1.0" encoding="UTF-8"?>
<svg width="18px" height="18px" viewBox="0 0 18 18" version="1.1" xmlns="http://www.w3.org/2000/svg" xmlns:xlink="http://www.w3.org/1999/xlink">
    <!-- Generator: Sketch 57.1 (83088) - https://sketch.com -->
    <title>icon-tour-itinerary-overview</title>
    <desc>Created with Sketch.</desc>
    <g id="Page-1" stroke="none" stroke-width="1" fill="none" fill-rule="evenodd">
        <g id="icon-tour-itinerary-overview" fill="#1C3C6B" fill-rule="nonzero">
            <path d="M9.0455625,0 C9.045,0 9.044325,0 9.0437625,0 C9.0408375,0 9.038025,0 9.0351,0 C9.0347625,0 9.0343125,0 9.0338625,0 C9.0327375,0 9.0316125,0 9.0304875,0 C4.0705875,0.0025875 0,4.0167 0,8.9649 C0,10.1748375 0.240975,11.35305 0.7162875,12.467025 C1.63665,14.6237625 3.371625,16.361325 5.532975,17.2836 C6.646725,17.7589125 7.8249375,18 9.03465,18 C9.0349875,18 9.035325,18 9.0356625,18 C9.03645,18 9.0372375,18 9.038025,18 C14.0144625,17.9983125 18,13.8981375 18,8.9649 C18,4.0174875 14.0007375,0.0057375 9.0455625,0 Z M7.2885375,1.24605 C6.3892125,2.0986875 5.6543625,3.0972375 5.100975,4.21875 L2.654775,4.21875 C3.7767375,2.740725 5.408325,1.6637625 7.2885375,1.24605 Z M1.9787625,5.2664625 L4.6504125,5.2664625 C4.2814125,6.27705 4.0633875,7.3542375 4.007025,8.4375 L1.0729125,8.4375 C1.1487375,7.301025 1.4677875,6.222375 1.9787625,5.2664625 Z M1.998675,12.7265625 C1.4752125,11.7513 1.14885,10.6554375 1.072575,9.4921875 L4.0035375,9.4921875 C4.053825,10.599525 4.2735375,11.6940375 4.6504125,12.7265625 L1.998675,12.7265625 Z M2.676375,13.78125 L5.100975,13.78125 C5.65335,14.9007375 6.387075,15.89895 7.286175,16.7517 C5.4189,16.332525 3.7971,15.25725 2.676375,13.78125 Z M5.0596875,9.4921875 L8.5078125,9.4921875 L8.5078125,12.7265625 L5.787675,12.7265625 C5.3665875,11.7120375 5.116275,10.62 5.0596875,9.4921875 Z M8.5078125,16.4219625 C7.6111875,15.6754125 6.8677875,14.7790125 6.302475,13.78125 L8.5078125,13.78125 L8.5078125,16.4219625 L8.5078125,16.4219625 Z M8.5078125,8.4375 L5.0632875,8.4375 C5.1265125,7.33455 5.3753625,6.266925 5.787675,5.2734375 L8.5078125,5.2734375 L8.5078125,8.4375 L8.5078125,8.4375 Z M8.5078125,4.21875 L6.3025875,4.21875 C6.8679,3.2209875 7.6113,2.324475 8.5078125,1.577925 L8.5078125,4.21875 L8.5078125,4.21875 Z M16.0293375,5.2734375 C16.535925,6.2294625 16.8521625,7.301025 16.9273125,8.4375 L14.063175,8.4375 C14.006925,7.3542375 13.7887875,6.284025 13.4199,5.2734375 L16.0293375,5.2734375 Z M15.3592875,4.21875 L12.9693375,4.21875 C12.4174125,3.1001625 11.684475,2.1027375 10.7865,1.2504375 C12.641625,1.6714125 14.251275,2.7460125 15.3592875,4.21875 Z M9.5625,1.57815 C10.459125,2.3247 11.2028625,3.2209875 11.768175,4.21875 L9.5625,4.21875 L9.5625,1.57815 Z M9.5625,5.2734375 L12.2833125,5.2734375 C12.695625,6.2668125 12.9439125,7.3346625 13.0071375,8.4375 L9.5625,8.4375 L9.5625,5.2734375 Z M13.0109625,9.4851 C12.954375,10.6129125 12.7044,11.7120375 12.2833125,12.7265625 L9.5625,12.7265625 L9.5625,9.4851 L13.0109625,9.4851 Z M9.5625,16.42185 L9.5625,13.7741625 L11.768175,13.7741625 C11.2028625,14.771925 10.459125,15.6751875 9.5625,16.42185 Z M10.788975,16.7473125 C11.68515,15.8961375 12.417525,14.892525 12.969225,13.7741625 L15.3379125,13.7741625 C14.2311375,15.2447625 12.631275,16.324875 10.788975,16.7473125 Z M13.4199,12.7265625 C13.796775,11.6940375 14.0166,10.5924375 14.0668875,9.4851 L16.92765,9.4851 C16.85205,10.64835 16.5286125,11.7513 16.00965,12.7265625 L13.4199,12.7265625 Z" id="Shape"></path>
        </g>
    </g>
</svg>