<svg width="18" height="12" viewBox="0 0 18 12" fill="none" xmlns="http://www.w3.org/2000/svg">
<path d="M11.089 3.00085C11.089 4.15465 10.1537 5.08999 8.99988 5.08999C7.84608 5.08999 6.91074 4.15465 6.91074 3.00085C6.91074 1.84706 7.84608 0.911719 8.99988 0.911719C10.1537 0.911719 11.089 1.84706 11.089 3.00085Z" stroke="#1C3C6B" stroke-width="1.3"/>
<path d="M15.7845 5.34811C15.7845 6.06967 15.1996 6.65461 14.478 6.65461C13.7564 6.65461 13.1715 6.06967 13.1715 5.34811C13.1715 4.62654 13.7564 4.0416 14.478 4.0416C15.1996 4.0416 15.7845 4.62654 15.7845 5.34811Z" stroke="#1C3C6B" stroke-width="1.3"/>
<path d="M4.88361 5.34811C4.88361 6.06967 4.29867 6.65461 3.57711 6.65461C2.85555 6.65461 2.27061 6.06967 2.27061 5.34811C2.27061 4.62654 2.85555 4.0416 3.57711 4.0416C4.29867 4.0416 4.88361 4.62654 4.88361 5.34811Z" stroke="#1C3C6B" stroke-width="1.3"/>
<path d="M13.4295 11.3507H4.57054C4.70502 9.02468 6.64098 7.17246 9.00004 7.17246C11.3591 7.17246 13.2951 9.02468 13.4295 11.3507Z" stroke="#1C3C6B" stroke-width="1.3"/>
<path d="M2.48554 11.3509H0.661566C0.781546 10.0152 1.82128 8.93917 3.14039 8.76314C2.75513 9.54961 2.52226 10.4249 2.48554 11.3509Z" stroke="#1C3C6B" stroke-width="1.3"/>
<path d="M15.5144 11.3509C15.4777 10.4249 15.2448 9.54961 14.8596 8.76314C16.1787 8.93917 17.2184 10.0152 17.3384 11.3509H15.5144Z" stroke="#1C3C6B" stroke-width="1.3"/>
</svg>
