<svg width="40" height="40" viewBox="0 0 40 40" fill="none" xmlns="http://www.w3.org/2000/svg">
<circle cx="20" cy="20" r="20" fill="#1C3C6B"/>
<path d="M23.0391 23.0279C24.9763 19.9882 24.7328 20.3674 24.7886 20.2881C25.4939 19.2934 25.8667 18.1226 25.8667 16.9022C25.8667 13.666 23.2405 11 20 11C16.7701 11 14.1333 13.6607 14.1333 16.9022C14.1333 18.1218 14.5139 19.3232 15.2423 20.3314L16.9608 23.0279C15.1234 23.3103 12 24.1517 12 26.0044C12 26.6798 12.4408 27.6423 14.5409 28.3923C16.0073 28.916 17.946 29.2044 20 29.2044C23.8409 29.2044 28 28.121 28 26.0044C28 24.1514 24.8802 23.3109 23.0391 23.0279ZM16.1333 19.7447C16.1274 19.7355 16.1213 19.7266 16.1149 19.7178C15.5088 18.8839 15.2 17.8957 15.2 16.9022C15.2 14.2349 17.3478 12.0667 20 12.0667C22.6467 12.0667 24.8 14.2359 24.8 16.9022C24.8 17.8973 24.497 18.852 23.9237 19.6639C23.8723 19.7316 24.1404 19.3152 20 25.8121L16.1333 19.7447ZM20 28.1378C15.8047 28.1378 13.0667 26.9046 13.0667 26.0044C13.0667 25.3994 14.4735 24.4046 17.591 24.0169L19.5502 27.0911C19.6481 27.2448 19.8177 27.3378 20 27.3378C20.1822 27.3378 20.3518 27.2447 20.4497 27.0911L22.4089 24.0169C25.5264 24.4046 26.9333 25.3994 26.9333 26.0044C26.9333 26.897 24.22 28.1378 20 28.1378Z" fill="white"/>
<path d="M19.9997 14.2354C18.5293 14.2354 17.333 15.4316 17.333 16.902C17.333 18.3724 18.5293 19.5687 19.9997 19.5687C21.4701 19.5687 22.6663 18.3724 22.6663 16.902C22.6663 15.4316 21.4701 14.2354 19.9997 14.2354ZM19.9997 18.502C19.1174 18.502 18.3997 17.7843 18.3997 16.902C18.3997 16.0198 19.1174 15.302 19.9997 15.302C20.8819 15.302 21.5997 16.0198 21.5997 16.902C21.5997 17.7843 20.8819 18.502 19.9997 18.502Z" fill="white"/>
</svg>
