<svg width="19" height="19" viewBox="0 0 19 19" fill="none" xmlns="http://www.w3.org/2000/svg">
<path d="M16.6102 12.9025C15.2924 12.9025 14.2204 13.9746 14.2204 15.2923V15.424C14.2204 15.9454 14.3947 16.4607 14.7113 16.8749L15.4843 17.8867H3.87232C2.35099 17.8867 1.11328 16.649 1.11328 15.1277C1.11328 13.6063 2.35099 12.3686 3.87232 12.3686H15.1277C17.2629 12.3686 19 10.6315 19 8.4963C19 6.3611 17.2629 4.62398 15.1277 4.62398H12.0129C11.7785 3.87429 11.0776 3.32871 10.2516 3.32871H8.9708L6.37968 0H3.55511L4.78075 3.32875H3.58476L3.19433 2.44558H0.0412284L1.25979 5.18065L0.0412284 7.91576H3.1966L3.58702 7.01864H4.78075L3.55515 10.3474H6.37968L8.9708 7.01864H10.2516C11.0724 7.01864 11.7694 6.47974 12.0082 5.73733H15.1276C16.649 5.73733 17.8867 6.97504 17.8867 8.49638C17.8867 10.0177 16.649 11.2554 15.1276 11.2554H3.87232C1.73712 11.2554 0 12.9925 0 15.1277C0 17.2629 1.73712 19 3.87232 19H16.8854L18.5091 16.8749C18.8257 16.4606 19 15.9453 19 15.424V15.2923C19 13.9746 17.9279 12.9025 16.6102 12.9025ZM5.15136 1.11328H5.83544L7.55998 3.32875H5.9671L5.15136 1.11328ZM5.83544 9.23415H5.15133L5.96706 7.01864H7.55998L5.83544 9.23415ZM10.2516 5.90536H2.85738L2.46695 6.80248H1.75601L2.4786 5.18069L1.75601 3.55886H2.46925L2.85968 4.44203H10.2516C10.6551 4.44203 10.9833 4.77026 10.9833 5.17371C10.9833 5.57713 10.6551 5.90536 10.2516 5.90536ZM17.8867 15.424C17.8867 15.7025 17.7935 15.9777 17.6245 16.199L16.6102 17.5265L15.5959 16.199C15.4267 15.9777 15.3336 15.7025 15.3336 15.424V15.2923C15.3336 14.5884 15.9063 14.0158 16.6102 14.0158C17.314 14.0158 17.8867 14.5884 17.8867 15.2923V15.424Z" fill="#1C3C6B"/>
</svg>
