<svg xmlns="http://www.w3.org/2000/svg" xmlns:xlink="http://www.w3.org/1999/xlink" width="111.7" height="115.885" viewBox="0 0 111.7 115.885">
  <defs>
    <linearGradient id="linear-gradient" x1="-0.125" y1="0.88" x2="1.126" y2="0.12" gradientUnits="objectBoundingBox">
      <stop offset="0" stop-color="#54a5ff"/>
      <stop offset="1" stop-color="#8ad3fe"/>
    </linearGradient>
    <linearGradient id="linear-gradient-2" x1="-0.022" y1="0.99" x2="1.022" y2="0.01" gradientUnits="objectBoundingBox">
      <stop offset="0" stop-color="#d3e6f5"/>
      <stop offset="1" stop-color="#f0f7fc"/>
    </linearGradient>
  </defs>
  <g id="lowest-booking" transform="translate(8824.323 3186.67)">
    <g id="lowest-booking-2" data-name="lowest-booking" transform="translate(-8824.323 -3186.67)">
      <path id="Path_101396" data-name="Path 101396" d="M-8627.944-3052.222s20.477-77.326,55.232-87.025c-.27-.808,19.129-6.2,47.688,42.839.271,0,32.871,58.736-29.367,72.476,0-.269-74.362,2.695-73.554-24.518Z" transform="translate(8627.951 3139.818)" fill="#e7f4ff"/>
    </g>
    <g id="Group_41283" data-name="Group 41283" transform="translate(-8603.637 -2982.671)">
      <path id="Path_101396-2" data-name="Path 101396" d="M-8627.951-3128.736s2.592-9.783,6.988-11.01c-.033-.1,2.422-.784,6.033,5.419.035,0,4.16,7.431-3.715,9.169,0-.034-9.408.341-9.307-3.1Z" transform="translate(8451.873 2985.471)" fill="#e7f4ff"/>
      <g id="transfer" transform="translate(-171.519 -149.993)">
        <path id="Path_101543" data-name="Path 101543" d="M20.01,4.611v7.028a.62.62,0,0,1-.631.611H15.632A.622.622,0,0,1,15,11.639V4.611A.622.622,0,0,1,15.632,4h3.747a.62.62,0,0,1,.631.611Z" transform="translate(-15 -3.999)" fill="url(#linear-gradient)"/>
        <path id="Path_101544" data-name="Path 101544" d="M22.807,7.99c0,7.515.024,7.05-.041,7.05a33.356,33.356,0,0,1-3.79-.022c0-7.513-.024-7.05.043-7.05h.841a.3.3,0,0,0,.295.295h1.473a.3.3,0,0,0,.295-.295c.872,0,.884-.009.884.022Z" transform="translate(-18.387 -7.378)" fill="url(#linear-gradient-2)"/>
        <path id="Path_101548" data-name="Path 101548" d="M5.262.043a.148.148,0,1,0-.209.209l.192.19H1.915A1.915,1.915,0,0,0,0,2.358a.147.147,0,0,0,.295,0A1.621,1.621,0,0,1,1.915.737H5.244l-.192.19a.148.148,0,1,0,.209.209C5.906.493,5.909.692,5.262.043Z" transform="translate(1.95 10.306) rotate(-90)" fill="#4795ea"/>
        <path id="Icon_awesome-rupee-sign" data-name="Icon awesome-rupee-sign" d="M1.343,2.529A.052.052,0,0,0,1.4,2.477V2.3a.052.052,0,0,0-.052-.052H.052A.052.052,0,0,0,0,2.3v.2a.052.052,0,0,0,.052.052H.424a.315.315,0,0,1,.266.119H.052A.052.052,0,0,0,0,2.721V2.9a.052.052,0,0,0,.052.052H.744A.3.3,0,0,1,.419,3.2H.052A.052.052,0,0,0,0,3.255v.231a.052.052,0,0,0,.017.038l.72.664A.052.052,0,0,0,.772,4.2h.36a.052.052,0,0,0,.035-.091L.51,3.505a.6.6,0,0,0,.6-.558h.23A.052.052,0,0,0,1.4,2.9V2.721a.052.052,0,0,0-.052-.052H1.087a.6.6,0,0,0-.062-.14Z" transform="translate(1.807 -0.241)" fill="#ffb369"/>
      </g>
      <g id="low-price" transform="translate(-201.582 -176.702)">
        <g id="Group_41275" data-name="Group 41275" transform="translate(45.814 21.358)">
          <path id="Path_122918" data-name="Path 122918" d="M326.3,162.485l-10.635-10.622a.72.72,0,0,1-.112-.824.758.758,0,0,1,.7-.448h4.953V127.324a1.548,1.548,0,0,1,1.545-1.545h8.274a1.548,1.548,0,0,1,1.545,1.545V150.59h4.953a.773.773,0,0,1,.589,1.273l-10.636,10.622a.772.772,0,0,1-1.177,0Z" transform="translate(-315.474 -125.779)" fill="#76c2fe" fill-rule="evenodd"/>
          <path id="Path_122919" data-name="Path 122919" d="M392.011,162.485l-1.31-1.308L401.294,150.6l.006-.007h1.935a.773.773,0,0,1,.589,1.273l-10.636,10.622a.772.772,0,0,1-1.177,0Zm3.715-36.706a1.545,1.545,0,0,1,.026.28V150.59h2.53V127.324a1.548,1.548,0,0,0-1.545-1.545h-1.011Z" transform="translate(-381.184 -125.779)" fill="#6ab8fe" fill-rule="evenodd"/>
        </g>
        <g id="Group_41276" data-name="Group 41276" transform="translate(12.49 20.385)">
          <path id="Path_122920" data-name="Path 122920" d="M65.929,165.089l-13.617-13.6a.923.923,0,0,1-.144-1.055.97.97,0,0,1,.9-.574h6.342V120.072a1.982,1.982,0,0,1,1.978-1.978H71.979a1.982,1.982,0,0,1,1.978,1.978V149.86H80.3a.989.989,0,0,1,.754,1.629l-13.617,13.6a.989.989,0,0,1-1.508,0Z" transform="translate(-52.067 -118.094)" fill="#71beff" fill-rule="evenodd"/>
          <path id="Path_122921" data-name="Path 122921" d="M153.69,165.088l-1.151-1.149a1.577,1.577,0,0,0,.128-.116l13.617-13.6a1,1,0,0,0,.2-.364h1.577a.989.989,0,0,1,.754,1.629l-13.617,13.6a.989.989,0,0,1-1.508,0Zm5.365-47a1.965,1.965,0,0,1,.133.713v31.053h2.53V120.071a1.982,1.982,0,0,0-1.978-1.978h-.686Z" transform="translate(-139.828 -118.093)" fill="#6ab8fe" fill-rule="evenodd"/>
        </g>
        <g id="Group_41277" data-name="Group 41277" transform="translate(0 0)">
          <path id="Path_122925" data-name="Path 122925" d="M19.167,0A19.167,19.167,0,1,1,0,19.167,19.167,19.167,0,0,1,19.167,0Z" transform="translate(0 27.101) rotate(-45)" fill="#ffb369"/>
          <path id="Path_122922" data-name="Path 122922" d="M159.149,19.681a19.167,19.167,0,0,1,0,38.333c-.411,0-.819-.015-1.223-.04a19.166,19.166,0,0,0,0-38.253c.4-.026.812-.04,1.223-.04Z" transform="translate(-132.043 -11.746)" fill="#eb7f58" fill-rule="evenodd"/>
          <path id="Path_122926" data-name="Path 122926" d="M15.08,0A15.08,15.08,0,1,1,0,15.08,15.08,15.08,0,0,1,15.08,0Z" transform="translate(12.026 12.022)" fill="#f5c88e"/>
          <path id="Path_122923" data-name="Path 122923" d="M63.482,51.986q.618,0,1.223.05a15.08,15.08,0,0,0,0,30.06q-.605.049-1.223.05a15.08,15.08,0,0,1,0-30.159Z" transform="translate(-36.376 -39.964)" fill="#fac279" fill-rule="evenodd"/>
          <path id="Icon_awesome-rupee-sign-2" data-name="Icon awesome-rupee-sign" d="M10.614,4.455a.414.414,0,0,0,.414-.414V2.664a.414.414,0,0,0-.414-.414H.414A.414.414,0,0,0,0,2.664V4.206a.414.414,0,0,0,.414.414H3.352a2.486,2.486,0,0,1,2.1.939H.414A.414.414,0,0,0,0,5.972V7.35a.414.414,0,0,0,.414.414H5.884a2.381,2.381,0,0,1-2.576,2.02H.414A.414.414,0,0,0,0,10.2v1.827a.414.414,0,0,0,.133.3l5.688,5.25a.414.414,0,0,0,.28.11H8.946a.414.414,0,0,0,.28-.717l-5.2-4.8A4.721,4.721,0,0,0,8.794,7.764h1.82a.414.414,0,0,0,.414-.414V5.972a.414.414,0,0,0-.414-.414H8.591a4.72,4.72,0,0,0-.491-1.1Z" transform="translate(21.588 17.753)" fill="#e7f4ff"/>
        </g>
      </g>
    </g>
  </g>
</svg>
