<svg xmlns="http://www.w3.org/2000/svg" width="34" height="34" viewBox="0 0 34 34">
    <g fill="none" fill-rule="evenodd">
        <circle cx="16.792" cy="16.792" r="16.792" fill="#FCCD03"/>
        <path fill="#1C3C6B" d="M19.326 15.238c0 1.423-1.077 2.576-2.407 2.576s-2.407-1.153-2.407-2.576 1.078-2.576 2.407-2.576c1.33 0 2.407 1.153 2.407 2.576zM19.646 24.213h-5.714a1.492 1.492 0 0 1-1.491-1.492 3.814 3.814 0 0 1 3.814-3.814h1.068a3.813 3.813 0 0 1 3.814 3.814c0 .824-.667 1.492-1.49 1.492z"/>
        <path stroke="#1C3C6B" stroke-width=".5" d="M12.255 13.662c.35-2.378 2.307-4.193 4.66-4.193 1.302 0 2.487.557 3.35 1.455a5.02 5.02 0 0 1 1.32 2.738"/>
        <path fill="#1C3C6B" d="M12.232 17.267h-.067a1.308 1.308 0 0 1-1.308-1.309v-.983c0-.722.586-1.308 1.308-1.308h.067c.716 0 1.297.58 1.297 1.297v1.006c0 .717-.58 1.297-1.297 1.297zM21.682 17.267h-.066a1.308 1.308 0 0 1-1.308-1.309v-.983c0-.722.585-1.308 1.308-1.308h.066c.717 0 1.297.58 1.297 1.297v1.006c0 .717-.58 1.297-1.297 1.297z"/>
    </g>
</svg>
