<svg id="support" xmlns="http://www.w3.org/2000/svg" width="109.887" height="114.73" viewBox="0 0 109.887 114.73">
  <path id="Path_101676" data-name="Path 101676" d="M-7798.384-3041s-23.342-2.714-21.713-27.684c.272.271,6.243-23.069,2.443-44.239-.542,0-4.885-38.269,44.239-25.241,0-1.086,66.768,20.084,62.967,77.623-.271-.272-8.956,53.467-62.967,27.141-.542-.271-21.13-6.367-23.4-7.1S-7798.384-3041-7798.384-3041Z" transform="translate(7820.178 3140.869)" fill="#e7f4ff"/>
  <g id="technical-support" transform="translate(26.152 24.762)">
    <g id="Group_41256" data-name="Group 41256" transform="translate(10.181 17.342)">
      <g id="Group_41254" data-name="Group 41254" transform="translate(24.426 0)">
        <path id="Path_122897" data-name="Path 122897" d="M274.106,135.127v8.042h3.306A2.168,2.168,0,0,0,279.581,141V137.3a2.168,2.168,0,0,0-2.168-2.168h-3.306Z" transform="translate(-274.106 -135.127)" fill="#9bc4f9"/>
      </g>
      <g id="Group_41255" data-name="Group 41255" transform="translate(0 0)">
        <path id="Path_122898" data-name="Path 122898" d="M86.115,135.127v8.042H82.808A2.168,2.168,0,0,1,80.64,141V137.3a2.168,2.168,0,0,1,2.168-2.168h3.306Z" transform="translate(-80.64 -135.127)" fill="#9bc4f9"/>
      </g>
    </g>
    <g id="Group_41273" data-name="Group 41273" transform="translate(0 0.322)">
      <g id="Group_41272" data-name="Group 41272" transform="translate(0 0)">
        <g id="Group_41267" data-name="Group 41267">
          <g id="Group_41263" data-name="Group 41263" transform="translate(42.562)">
            <path id="Path_122899" data-name="Path 122899" d="M348.3.322h-8.356a2.837,2.837,0,0,0-2.837,2.837v8.206a2.837,2.837,0,0,0,2.837,2.837c.926,0,1.063.173,1.36.455h5.235c.3-.288.477-.455,1.413-.455h.406a2.837,2.837,0,0,0,2.777-2.836V3.159A2.837,2.837,0,0,0,348.3.322Z" transform="translate(-337.111 -0.322)" fill="#feb068"/>
            <path id="Path_122900" data-name="Path 122900" d="M430.723.322h-8.5a2.837,2.837,0,0,1,2.837,2.837v8.206a2.837,2.837,0,0,1-2.777,2.836h8.438a2.837,2.837,0,0,0,2.837-2.837V3.159A2.837,2.837,0,0,0,430.723.322Z" transform="translate(-411.479 -0.322)" fill="#eb7f58"/>
            <g id="Group_41262" data-name="Group 41262" transform="translate(3.392 3.829)">
              <g id="Group_41259" data-name="Group 41259">
                <g id="Group_41257" data-name="Group 41257" transform="translate(4.833)">
                  <path id="Path_122901" data-name="Path 122901" d="M411.75,32.6h-8.512a.975.975,0,1,1,0-1.951h8.512a.975.975,0,1,1,0,1.951Z" transform="translate(-402.263 -30.651)" fill="#f2f9ff"/>
                </g>
                <g id="Group_41258" data-name="Group 41258">
                  <path id="Path_122902" data-name="Path 122902" d="M365.993,32.6h-1.037a.975.975,0,0,1,0-1.951h1.037a.975.975,0,1,1,0,1.951Z" transform="translate(-363.98 -30.651)" fill="#f2f9ff"/>
                </g>
              </g>
              <g id="Group_41261" data-name="Group 41261" transform="translate(0 4.582)">
                <g id="Group_41260" data-name="Group 41260" transform="translate(0 0)">
                  <path id="Path_122903" data-name="Path 122903" d="M378.3,68.9H364.955a.975.975,0,0,1,0-1.951H378.3a.975.975,0,0,1,0,1.951Z" transform="translate(-363.98 -66.946)" fill="#f2f9ff"/>
                </g>
              </g>
            </g>
          </g>
          <g id="Group_41266" data-name="Group 41266" transform="translate(0 29.101)">
            <g id="Group_41265" data-name="Group 41265">
              <g id="Group_41264" data-name="Group 41264">
                <path id="Path_122904" data-name="Path 122904" d="M153.266,241.4a2.841,2.841,0,0,1-2.3-2.789v-7.8H140.1v7.8a2.847,2.847,0,0,1-2.3,2.789l2.683,3.6h10.1A35.4,35.4,0,0,0,153.266,241.4Z" transform="translate(-120.401 -230.813)" fill="#ffddce"/>
                <path id="Path_122905" data-name="Path 122905" d="M54.884,339.945v-4.636a16.777,16.777,0,0,0-13.606-16.474c-.773-.149-21.49,0-21.49,0A16.777,16.777,0,0,0,6.182,335.309v4.636Z" transform="translate(-5.401 -307.663)" fill="#ffa265"/>
                <path id="Path_122906" data-name="Path 122906" d="M64.581,312.374H36.77a2.994,2.994,0,0,0-2.99,3.157l1.051,19.363H66.52l1.051-19.363A2.994,2.994,0,0,0,64.581,312.374Z" transform="translate(-29.511 -302.077)" fill="#eaf2ff"/>
                <path id="Path_122907" data-name="Path 122907" d="M281.808,312.374h-8.5a2.994,2.994,0,0,1,2.99,3.157l-1.051,19.363h8.5l1.051-19.363A2.994,2.994,0,0,0,281.808,312.374Z" transform="translate(-238.803 -302.077)" fill="#dbe8f9"/>
                <path id="Path_122908" data-name="Path 122908" d="M42.046,480.549v-1.6l-.341-.5H2.1a2.1,2.1,0,1,0,0,4.195H39.949a2.1,2.1,0,0,0,2.1-2.1Z" transform="translate(0 -447.186)" fill="#9bc4f9"/>
                <path id="Path_122909" data-name="Path 122909" d="M322.262,478.451H315.8v2.1a2.1,2.1,0,0,1-2.1,2.1h8.559a2.1,2.1,0,0,0,0-4.2Z" transform="translate(-274.096 -447.186)" fill="#7fb2f9"/>
              </g>
            </g>
            <path id="Path_122910" data-name="Path 122910" d="M160.5,382.358a6.951,6.951,0,0,1,1.794-4.649l.026-.029a5.95,5.95,0,0,0-1.5-9.139.512.512,0,0,0-.766.443v4.426a1.343,1.343,0,0,1-1.343,1.343h-1.651a1.343,1.343,0,0,1-1.343-1.343v-4.426a.512.512,0,0,0-.766-.443,5.95,5.95,0,0,0-1.5,9.139l.026.029a6.951,6.951,0,0,1,1.794,4.649Z" transform="translate(-132.746 -351.092)" fill="#bcd6f9"/>
          </g>
        </g>
        <g id="Group_41271" data-name="Group 41271" transform="translate(11.955 3.659)">
          <g id="Group_41270" data-name="Group 41270">
            <g id="Group_41269" data-name="Group 41269">
              <g id="Group_41268" data-name="Group 41268">
                <path id="Path_122911" data-name="Path 122911" d="M126.782,70.587a10.309,10.309,0,0,0,3.4-7.588l-.035-13.981a10.5,10.5,0,0,0-1.175-4.839,11.186,11.186,0,0,0-3.82-.7,10.538,10.538,0,0,0-10.6,10.5l.009,2.062.032,6.923a10.075,10.075,0,0,0,3.388,7.389,11.283,11.283,0,0,0,4.928,2.528A11.769,11.769,0,0,0,126.782,70.587Z" transform="translate(-112.046 -41.688)" fill="#ffddce"/>
                <path id="Path_122912" data-name="Path 122912" d="M189.066,57.526a10.343,10.343,0,0,0-7.385-9.886,10.221,10.221,0,0,1,1.411,5.2l.035,13.667a10.077,10.077,0,0,1-3.326,7.418,11.389,11.389,0,0,1-4.33,2.419,10.7,10.7,0,0,0,10.3-2.419A10.077,10.077,0,0,0,189.1,66.51Z" transform="translate(-165.27 -45.325)" fill="#ffcbbe"/>
                <path id="Path_122913" data-name="Path 122913" d="M107.5,38.03h.739a9.513,9.513,0,0,0,2.948-.489,5.4,5.4,0,0,1,1.611-.259l0-.651a10.46,10.46,0,0,0-1.443-5.323h0a10.419,10.419,0,0,0-1.274-1.72l-.852-.288h-6.211a8.325,8.325,0,0,0-8.325,8.325v5.5a1.9,1.9,0,0,0,1.275,1.793l2.051.714a1.1,1.1,0,0,0,1.464-1.042l0-3.879a3.4,3.4,0,0,1,3.361-3.43h.041a5.4,5.4,0,0,1,1.674.259,9.511,9.511,0,0,0,2.948.489Z" transform="translate(-94.689 -29.301)" fill="#756e78"/>
                <path id="Path_122914" data-name="Path 122914" d="M218.391,33.643h-.109a1.1,1.1,0,0,1-1.1-1.1A3.246,3.246,0,0,0,213.94,29.3h-4.12a10.145,10.145,0,0,1,3.285,7.518v.473c.115-.007.23-.011.345-.011h.041a3.4,3.4,0,0,1,3.361,3.43l0,3.88a1.1,1.1,0,0,0,1.464,1.042l2.05-.714a1.9,1.9,0,0,0,1.274-1.793V36.889A3.245,3.245,0,0,0,218.391,33.643Z" transform="translate(-195.284 -29.301)" fill="#665e66"/>
                <path id="Path_122915" data-name="Path 122915" d="M239.795,183.8v1.423a2.012,2.012,0,0,1-2.01,2.01h-6.006a.975.975,0,1,0,0,1.951h6.006a3.965,3.965,0,0,0,3.961-3.961v-3.58A2.169,2.169,0,0,1,239.795,183.8Z" transform="translate(-213.619 -162.413)" fill="#dbe8f9"/>
                <path id="Path_122916" data-name="Path 122916" d="M228.716,222.369h-2.448a1.691,1.691,0,0,1,0-3.382h2.448a1.691,1.691,0,1,1,0,3.382Z" transform="translate(-208.178 -195.038)" fill="#fe9c63"/>
              </g>
            </g>
          </g>
        </g>
      </g>
    </g>
    <g id="Group_41274" data-name="Group 41274" transform="translate(45.399 14.201)">
      <path id="Path_122917" data-name="Path 122917" d="M367.529,110.251h-7.948a1.657,1.657,0,0,1,1.657,1.657v5.074a.635.635,0,0,0,1.18.327l3.75-6.253a1.657,1.657,0,0,1,1.362-.8h0Z" transform="translate(-359.581 -110.251)" fill="#eb7f58"/>
    </g>
  </g>
</svg>
