<svg xmlns="http://www.w3.org/2000/svg" width="46" height="45" viewBox="0 0 46 45" fill="none">
<path d="M45.5 22.5C45.5 34.64 35.4368 44.5 23 44.5C10.5632 44.5 0.5 34.64 0.5 22.5C0.5 10.36 10.5632 0.5 23 0.5C35.4368 0.5 45.5 10.36 45.5 22.5Z" fill="white" stroke="#DADCDF"/>
<path d="M26.0375 22.0375L29.75 25.75L26.0375 29.4625L24.977 28.402L26.879 26.4992L17 26.5V25H26.879L24.977 23.098L26.0375 22.0375ZM19.9625 14.5375L21.023 15.598L19.121 17.5H29V19H19.121L21.023 20.902L19.9625 21.9625L16.25 18.25L19.9625 14.5375Z" fill="#419c3c"/>
</svg>